<?xml version="1.0" encoding="UTF-8" standalone="no"?>
<svg
   xmlns:dc="http://purl.org/dc/elements/1.1/"
   xmlns:cc="http://creativecommons.org/ns#"
   xmlns:rdf="http://www.w3.org/1999/02/22-rdf-syntax-ns#"
   xmlns:svg="http://www.w3.org/2000/svg"
   xmlns="http://www.w3.org/2000/svg"
   xmlns:sodipodi="http://sodipodi.sourceforge.net/DTD/sodipodi-0.dtd"
   xmlns:inkscape="http://www.inkscape.org/namespaces/inkscape"
   width="50"
   height="50"
   viewBox="0 0 7.9375 7.9375"
   version="1.1"
   id="svg8"
   sodipodi:docname="qm.svg"
   inkscape:version="0.92.5 (2060ec1f9f, 2020-04-08)">
  <sodipodi:namedview
     pagecolor="#ffffff"
     bordercolor="#666666"
     borderopacity="1"
     objecttolerance="10"
     gridtolerance="10"
     guidetolerance="10"
     inkscape:pageopacity="0"
     inkscape:pageshadow="2"
     inkscape:window-width="1848"
     inkscape:window-height="1016"
     id="namedview822"
     showgrid="false"
     inkscape:zoom="5.9255548"
     inkscape:cx="9.8176531"
     inkscape:cy="17.569112"
     inkscape:window-x="72"
     inkscape:window-y="27"
     inkscape:window-maximized="1"
     inkscape:current-layer="svg8" />
  <defs
     id="defs2" />
  <metadata
     id="metadata5">
    <rdf:RDF>
      <cc:Work
         rdf:about="">
        <dc:format>image/svg+xml</dc:format>
        <dc:type
           rdf:resource="http://purl.org/dc/dcmitype/StillImage" />
        <dc:title></dc:title>
      </cc:Work>
    </rdf:RDF>
  </metadata>
  <path
     style="opacity:0.98999999;fill:#ffffff;fill-opacity:1;fill-rule:nonzero;stroke:none;stroke-width:1.2238611;stroke-miterlimit:4;stroke-dasharray:none;stroke-opacity:1"
     d="M 25 3.5019531 A 22.476043 21.497138 0 0 0 2.5234375 25 A 22.476043 21.497138 0 0 0 25 46.498047 A 22.476043 21.497138 0 0 0 47.476562 25 A 22.476043 21.497138 0 0 0 25 3.5019531 z M 12.720703 11.306641 L 34.214844 11.306641 L 39.642578 16.5 L 39.642578 23.974609 L 34.214844 29.166016 L 27.267578 29.166016 L 26.832031 29.582031 L 26.832031 31.451172 L 18.582031 31.451172 L 18.582031 25.84375 L 22.273438 22.314453 L 29.220703 22.314453 L 30.306641 21.275391 L 30.306641 19.199219 L 29.220703 18.160156 L 12.720703 18.160156 L 12.720703 11.306641 z M 18.365234 33.320312 L 27.048828 33.320312 L 27.048828 40.380859 L 18.365234 40.380859 L 18.365234 33.320312 z "
     transform="scale(0.15875)"
     id="path828" />
</svg>
