<?xml version="1.0" standalone="no"?>
<!DOCTYPE svg PUBLIC "-//W3C//DTD SVG 20010904//EN"
 "http://www.w3.org/TR/2001/REC-SVG-20010904/DTD/svg10.dtd">
<svg version="1.0" xmlns="http://www.w3.org/2000/svg"
 width="967.000000pt" height="1280.000000pt" viewBox="0 0 967.000000 1280.000000"
 preserveAspectRatio="xMidYMid meet">
<metadata>
Created by potrace 1.15, written by Peter Selinger 2001-2017
</metadata>
<g transform="translate(0.000000,1280.000000) scale(0.100000,-0.100000)"
fill="#000000" stroke="none">
<path d="M3850 12793 c-65 -23 -172 -86 -239 -140 -382 -305 -523 -895 -311
-1303 48 -92 112 -170 208 -255 83 -74 126 -99 209 -120 127 -33 233 -10 377
82 469 302 581 1076 218 1510 -68 80 -192 172 -280 208 -59 24 -143 32 -182
18z"/>
<path d="M2510 12288 c-79 -41 -184 -143 -232 -225 -169 -288 -128 -620 95
-764 56 -37 66 -40 106 -34 169 25 315 186 371 409 24 96 26 243 5 334 -29
123 -100 225 -192 274 -77 41 -84 41 -153 6z"/>
<path d="M1520 11829 c-98 -99 -172 -218 -205 -334 -21 -72 -17 -184 10 -235
10 -19 19 -57 21 -84 5 -66 40 -117 100 -147 99 -47 231 -20 279 59 11 18 36
53 57 77 93 113 137 292 108 445 -14 71 -54 157 -93 199 -42 44 -121 81 -174
81 -37 0 -47 -6 -103 -61z"/>
<path d="M719 11162 c-93 -60 -172 -175 -204 -299 -8 -31 -15 -99 -15 -149 0
-119 25 -201 86 -284 l46 -62 46 6 c158 21 299 186 338 396 35 181 -22 331
-148 394 -66 33 -94 33 -149 -2z"/>
<path d="M2488 10819 c-181 -24 -686 -236 -955 -403 -488 -301 -818 -766 -909
-1279 -19 -109 -22 -342 -5 -437 11 -61 28 -128 118 -460 103 -383 284 -798
658 -1505 209 -395 387 -752 473 -950 130 -297 182 -477 282 -975 104 -516
154 -702 252 -930 134 -314 292 -512 480 -604 122 -60 199 -79 323 -80 160 0
291 45 412 140 34 27 91 65 125 84 236 131 374 441 355 796 -8 149 -36 279
-101 473 -75 222 -125 343 -304 736 -169 373 -264 605 -312 766 -162 543 -130
982 104 1424 80 152 132 234 351 560 111 165 231 347 265 405 138 229 240 482
274 678 18 107 11 160 -45 332 -185 569 -688 1034 -1284 1189 -170 45 -395 61
-557 40z"/>
<path d="M152 10333 c-35 -7 -84 -62 -119 -136 -32 -64 -33 -71 -33 -191 l0
-124 33 -44 c43 -57 91 -81 137 -68 98 28 182 184 184 340 1 121 -35 185 -121
216 -40 14 -43 14 -81 7z"/>
<path d="M5568 9546 c-87 -36 -150 -80 -220 -155 -99 -106 -162 -228 -204
-391 -28 -112 -26 -348 5 -445 12 -38 27 -95 32 -125 29 -162 108 -308 234
-435 149 -149 276 -208 450 -209 89 -1 106 2 155 26 130 64 249 192 326 353
74 153 88 220 88 440 1 166 -2 201 -22 280 -73 286 -233 505 -446 610 -150 74
-296 93 -398 51z"/>
<path d="M6995 9103 c-237 -129 -290 -461 -123 -775 60 -114 206 -248 269
-248 82 0 204 80 255 166 92 157 86 401 -13 603 -87 176 -289 308 -388 254z"/>
<path d="M7897 8649 c-52 -43 -92 -104 -116 -177 -70 -208 47 -510 259 -665
l35 -25 52 20 c132 49 213 191 213 375 0 104 -14 170 -54 258 -63 136 -174
226 -296 239 -51 6 -58 4 -93 -25z"/>
<path d="M8747 7966 c-77 -76 -117 -184 -117 -311 0 -228 145 -436 326 -468
27 -5 37 0 74 36 85 85 122 183 121 332 0 245 -128 426 -311 442 -55 5 -58 4
-93 -31z"/>
<path d="M6740 7604 c-288 -36 -547 -135 -769 -292 -97 -68 -274 -245 -356
-353 -136 -181 -228 -368 -282 -576 -26 -100 -28 -122 -28 -298 l0 -190 32
-77 c94 -225 191 -390 452 -771 225 -330 297 -447 382 -620 112 -230 155 -389
169 -632 34 -565 -24 -803 -381 -1567 -173 -370 -252 -566 -314 -778 -19 -63
-48 -153 -64 -200 -111 -315 -19 -662 248 -930 130 -131 274 -220 454 -282
232 -80 444 -14 662 206 113 114 178 204 259 357 85 161 139 343 267 908 100
442 129 564 172 717 60 214 190 495 573 1244 410 802 570 1167 698 1591 78
261 126 502 126 639 0 681 -479 1357 -1203 1700 -191 90 -367 146 -582 186
-87 16 -434 28 -515 18z"/>
<path d="M9394 7120 c-38 -25 -80 -100 -89 -161 -14 -92 34 -240 98 -307 42
-44 78 -62 122 -62 43 0 69 12 113 53 l32 31 0 132 c0 73 -4 135 -9 139 -5 3
-34 41 -64 84 -76 107 -135 134 -203 91z"/>
</g>
</svg>
