<?xml version="1.0" encoding="UTF-8" standalone="no"?>
<svg
   xmlns:dc="http://purl.org/dc/elements/1.1/"
   xmlns:cc="http://creativecommons.org/ns#"
   xmlns:rdf="http://www.w3.org/1999/02/22-rdf-syntax-ns#"
   xmlns:svg="http://www.w3.org/2000/svg"
   xmlns="http://www.w3.org/2000/svg"
   xmlns:sodipodi="http://sodipodi.sourceforge.net/DTD/sodipodi-0.dtd"
   xmlns:inkscape="http://www.inkscape.org/namespaces/inkscape"
   width="175"
   height="100"
   viewBox="0 0 174.99999 99.999999"
   version="1.1"
   id="svg3434"
   sodipodi:docname="jogger.svg"
   inkscape:version="0.92.5 (2060ec1f9f, 2020-04-08)">
  <metadata
     id="metadata3440">
    <rdf:RDF>
      <cc:Work
         rdf:about="">
        <dc:format>image/svg+xml</dc:format>
        <dc:type
           rdf:resource="http://purl.org/dc/dcmitype/StillImage" />
        <dc:title></dc:title>
      </cc:Work>
    </rdf:RDF>
  </metadata>
  <defs
     id="defs3438" />
  <sodipodi:namedview
     pagecolor="#ffffff"
     bordercolor="#666666"
     borderopacity="1"
     objecttolerance="10"
     gridtolerance="10"
     guidetolerance="10"
     inkscape:pageopacity="0"
     inkscape:pageshadow="2"
     inkscape:window-width="1848"
     inkscape:window-height="1016"
     id="namedview3436"
     showgrid="false"
     inkscape:zoom="2.5018021"
     inkscape:cx="87.244003"
     inkscape:cy="47.166"
     inkscape:window-x="72"
     inkscape:window-y="27"
     inkscape:window-maximized="1"
     inkscape:current-layer="svg3434" />
  <g
     data-name="图层 2"
     id="g3432"
     transform="translate(0,5.6679993)">
    <g
       data-name="图层 1-2"
       id="g3430">
      <path
         data-name="路径 349"
         d="M 34.035,94.332 A 3.308,3.308 0 0 1 32.87,94.123 L 2.262,83.041 A 3.391,3.391 0 0 1 0.02,79.477 L 1.107,69.456 a 3.422,3.422 0 0 1 2.137,-2.8 l 0.522,-4.1 0.1,-0.251 0.13,-0.345 0.2,-0.308 a 3.73,3.73 0 0 1 0.3,-0.418 3.6,3.6 0 0 1 0.475,-0.465 l 0.183,-0.147 0.235,-0.141 0.22,-0.12 0.282,-0.151 0.4,-0.1 33.435,-8.386 0.381,-0.177 a 3.424,3.424 0 0 1 2.012,-2.362 l 3.067,-1.27 a 3.361,3.361 0 0 1 2.435,-0.063 l 0.178,0.058 0.522,-0.246 a 3.365,3.365 0 0 1 1.855,-2.288 l 2.968,-1.38 a 3.421,3.421 0 0 1 2.55,-0.125 l 0.339,0.12 0.45,-0.214 a 3.4,3.4 0 0 1 1.844,-2.325 l 2.869,-1.38 a 3.417,3.417 0 0 1 2.612,-0.146 l 0.491,0.167 0.523,-0.25 a 3.405,3.405 0 0 1 1.9,-2.378 l 2.973,-1.379 a 3.411,3.411 0 0 1 2.576,-0.115 l 0.429,0.157 0.46,-0.22 a 3.37,3.37 0 0 1 2.032,-2.471 l 3.078,-1.28 a 3.426,3.426 0 0 1 1.922,-0.2 l -4.7,-28 a 3.425,3.425 0 0 1 1.128,-3.135 3.388,3.388 0 0 1 2.232,-0.83 3.231,3.231 0 0 1 1.045,0.162 l 38.142,12.19 30.974,-7.315 h 0.522 a 3.119,3.119 0 0 1 0.732,0.1 3.426,3.426 0 0 1 1.928,1.322 l 0.193,0.235 0.23,0.564 a 3.431,3.431 0 0 1 0.183,1.625 l -0.9,7.117 a 3.382,3.382 0 0 1 0.758,1.128 l 0.883,2.122 a 3.4,3.4 0 0 1 -1.829,4.441 l -0.825,0.345 -1.113,8.778 4.4,10.972 a 3.385,3.385 0 0 1 2.613,1.228 l 9.384,11.25 a 3.4,3.4 0 0 1 0,4.331 l -2.759,3.349 10.685,22.792 0.194,0.36 0.068,0.376 a 1.509,1.509 0 0 0 0.041,0.209 l 0.084,0.33 -0.089,1.045 -0.141,0.318 -0.052,0.131 -0.089,0.261 -0.214,0.319 a 3.127,3.127 0 0 1 -0.423,0.522 l -0.189,0.23 -0.4,0.251 -0.491,0.324 h -0.068 l -4,2.43 a 3.386,3.386 0 0 1 -1.761,0.491 z"
         id="path3368"
         inkscape:connector-curvature="0" />
      <path
         data-name="路径 350"
         d="m 171.285,88.362 a 0.242,0.242 0 0 0 0.031,-0.089 v -0.031 a 0.2,0.2 0 0 0 0,-0.084 0.039,0.039 0 0 0 0,-0.026 L 159.743,63.485 163.771,58.6 a 0.265,0.265 0 0 0 0,-0.334 l -9.368,-11.281 a 0.256,0.256 0 0 0 -0.266,-0.089 l -1.881,0.486 -5.7,-14.175 1.442,-11.386 2.5,-1.045 a 0.23,0.23 0 0 0 0.141,-0.141 0.261,0.261 0 0 0 0,-0.2 l -0.888,-2.148 a 0.256,0.256 0 0 0 -0.332,-0.144 h -0.008 l -1.008,0.418 1.28,-10.11 a 0.268,0.268 0 0 0 0,-0.126 0.227,0.227 0 0 0 -0.167,-0.146 h -0.125 L 117.92,15.599 78.917,3.135 a 0.269,0.269 0 0 0 -0.25,0.052 0.264,0.264 0 0 0 -0.089,0.24 l 5.188,30.927 -2.612,1.228 -1.521,-0.523 a 0.252,0.252 0 0 0 -0.183,0 l -3.077,1.275 a 0.26,0.26 0 0 0 0.01,0.486 l 1.239,0.444 -4.781,2.263 -1.651,-0.6 a 0.264,0.264 0 0 0 -0.2,0 l -2.968,1.38 a 0.249,0.249 0 0 0 -0.151,0.245 0.255,0.255 0 0 0 0.172,0.235 l 1.186,0.429 -4.775,2.257 -1.709,-0.6 a 0.261,0.261 0 0 0 -0.2,0 l -2.864,1.38 a 0.245,0.245 0 0 0 -0.146,0.245 0.266,0.266 0 0 0 0.172,0.235 l 1.166,0.408 -4.7,2.21 -1.567,-0.549 a 0.282,0.282 0 0 0 -0.194,0 l -2.973,1.38 a 0.261,0.261 0 0 0 -0.151,0.251 0.265,0.265 0 0 0 0.172,0.235 l 1.076,0.376 -4.634,2.195 -1.395,-0.523 a 0.264,0.264 0 0 0 -0.188,0 l -3.078,1.275 a 0.262,0.262 0 0 0 -0.147,0.339 0.265,0.265 0 0 0 0.147,0.147 l 1.1,0.4 -3.548,1.672 -0.031,0.032 -33.7,8.548 H 6.984 a 0.212,0.212 0 0 0 -0.037,0.036 l -0.026,0.032 v 0.047 a 0.14,0.14 0 0 0 0,0.041 L 5.975,70.057 4.591,69.566 A 0.261,0.261 0 0 0 4.256,69.721 0.237,0.237 0 0 0 4.241,69.785 L 3.154,79.807 a 0.267,0.267 0 0 0 0.172,0.277 l 30.619,11.087 h 132.622 a 0.25,0.25 0 0 0 0.136,-0.036 l 4.493,-2.728 a 0.277,0.277 0 0 0 0.063,-0.073 z"
         id="path3370"
         inkscape:connector-curvature="0" />
      <path
         data-name="路径 351"
         d="m 749.5,1090.686 1.087,-10.027 5.539,1.965 0.982,6.134 26.6,8.971 7.3,-5.591 8.2,5.591 h 10.682 l 7.116,-5.591 8.585,5.591 h 12.3 l 8.2,-6.73 8.579,6.73 h 13.53 l 9.044,-7.493 9.034,7.493 h 11.876 l 9.039,-7.493 9.948,8.835 -4.494,2.722 -132.527,-0.021 z"
         style="fill:#ffffff;stroke:#000000;stroke-width:0.52200001px;stroke-linecap:round;stroke-linejoin:round"
         transform="translate(-746.083,-1010.838)"
         id="path3372"
         inkscape:connector-curvature="0" />
      <path
         data-name="路径 352"
         d="m 816.635,1089.255 58.959,-11.338 23.842,3.741 6.061,-7.425 11.647,24.84 -9.948,-8.835 -9.039,7.493 h -11.878 l -9.034,-7.493 -9.044,7.493 H 854.678 L 846.1,1091 l -8.2,6.73 h -12.3 l -8.585,-5.591 -7.116,5.591 H 799.2 l -8.2,-5.591 -7.3,5.591 -26.6,-8.971 z"
         style="fill:#ffffff;stroke:#000000;stroke-width:0.52200001px;stroke-linecap:round;stroke-linejoin:round"
         transform="translate(-746.083,-1010.838)"
         id="path3374"
         inkscape:connector-curvature="0" />
      <path
         data-name="路径 353"
         d="m 830.152,1045.354 -5.22,-31.12 39.041,12.477 31.538,-7.435 -3.135,24.8 -42.793,8.151 z"
         style="fill:#ffffff;stroke:#000000;stroke-width:0.52200001px;stroke-linecap:round;stroke-linejoin:round"
         transform="translate(-746.083,-1010.838)"
         id="path3376"
         inkscape:connector-curvature="0" />
      <path
         data-name="路径 354"
         d="m 756.125,1082.624 59.45,-2.832 84.713,-21.809 9.363,11.286 -10.215,12.388 -23.842,-3.741 -58.959,11.338 -59.528,-0.5 z"
         style="fill:#ffffff;stroke:#000000;stroke-width:0.52200001px;stroke-linecap:round;stroke-linejoin:round"
         transform="translate(-746.083,-1010.838)"
         id="path3378"
         inkscape:connector-curvature="0" />
      <path
         data-name="路径 355"
         d="m 815.575,1079.792 -12.566,-8.2 46.576,-19.359 20.148,13.622 z"
         style="fill:#ffffff;stroke:#000000;stroke-width:0.52200001px;stroke-linecap:round;stroke-linejoin:round"
         transform="translate(-746.083,-1010.838)"
         id="path3380"
         inkscape:connector-curvature="0" />
      <path
         data-name="路径 356"
         d="m 787.072,1065.7 43.08,-20.346 19.432,6.876 -46.576,19.359 z"
         style="fill:#ffffff;stroke:#000000;stroke-width:0.52200001px;stroke-linecap:round;stroke-linejoin:round"
         transform="translate(-746.083,-1010.838)"
         id="path3382"
         inkscape:connector-curvature="0" />
      <path
         data-name="矩形 103"
         transform="rotate(-22.6,166.933,-117.34)"
         style="fill:#ffffff;stroke:#000000;stroke-width:0.52200001px;stroke-linecap:round;stroke-linejoin:round"
         d="M 0,0 H 6.145 V 4.791 H 0 Z"
         id="path3384"
         inkscape:connector-curvature="0" />
      <path
         data-name="矩形 104"
         transform="rotate(-22.6,162.072,-141.642)"
         style="fill:#ffffff;stroke:#000000;stroke-width:0.52200001px;stroke-linecap:round;stroke-linejoin:round"
         d="M 0,0 H 6.145 V 4.791 H 0 Z"
         id="path3386"
         inkscape:connector-curvature="0" />
      <path
         data-name="矩形 105"
         transform="rotate(-22.6,157.227,-165.94)"
         style="fill:#ffffff;stroke:#000000;stroke-width:0.52200001px;stroke-linecap:round;stroke-linejoin:round"
         d="M 0,0 H 6.145 V 4.791 H 0 Z"
         id="path3388"
         inkscape:connector-curvature="0" />
      <path
         data-name="矩形 106"
         transform="rotate(-22.6,152.53,-190.086)"
         style="fill:#ffffff;stroke:#000000;stroke-width:0.52200001px;stroke-linecap:round;stroke-linejoin:round"
         d="M 0,0 H 6.145 V 4.791 H 0 Z"
         id="path3390"
         inkscape:connector-curvature="0" />
      <path
         data-name="矩形 107"
         transform="rotate(-22.6,147.557,-214.294)"
         style="fill:#ffffff;stroke:#000000;stroke-width:0.52200001px;stroke-linecap:round;stroke-linejoin:round"
         d="M 0,0 H 6.145 V 4.791 H 0 Z"
         id="path3392"
         inkscape:connector-curvature="0" />
      <path
         data-name="路径 357"
         d="m 812.962,1062.241 1.2,2.89 -16.462,-5.831 2.973,-1.379 z"
         style="fill:#ffffff;stroke:#000000;stroke-width:0.52200001px;stroke-linecap:round;stroke-linejoin:round"
         transform="translate(-746.083,-1010.838)"
         id="path3394"
         inkscape:connector-curvature="0" />
      <path
         data-name="路径 358"
         d="m 821.9,1058.521 1.2,2.889 -17.2,-6.056 2.869,-1.379 z"
         style="fill:#ffffff;stroke:#000000;stroke-width:0.52200001px;stroke-linecap:round;stroke-linejoin:round"
         transform="translate(-746.083,-1010.838)"
         id="path3396"
         inkscape:connector-curvature="0" />
      <path
         data-name="路径 359"
         d="m 830.915,1054.942 1.2,2.884 -17.88,-6.437 2.968,-1.379 z"
         style="fill:#ffffff;stroke:#000000;stroke-width:0.52200001px;stroke-linecap:round;stroke-linejoin:round"
         transform="translate(-746.083,-1010.838)"
         id="path3398"
         inkscape:connector-curvature="0" />
      <path
         data-name="路径 360"
         d="m 839.777,1051.175 1.2,2.889 -18.4,-6.657 3.078,-1.275 z"
         style="fill:#ffffff;stroke:#000000;stroke-width:0.52200001px;stroke-linecap:round;stroke-linejoin:round"
         transform="translate(-746.083,-1010.838)"
         id="path3400"
         inkscape:connector-curvature="0" />
      <path
         data-name="路径 361"
         d="m 895.512,1019.276 -51.312,12.174 5.387,20.78 42.793,-8.151 z"
         style="fill:#ffffff;stroke:#000000;stroke-width:0.52200001px;stroke-linecap:round;stroke-linejoin:round"
         transform="translate(-746.083,-1010.838)"
         id="path3402"
         inkscape:connector-curvature="0" />
      <path
         data-name="路径 362"
         d="m 804.027,1065.935 1.2,2.884 -15.732,-5.68 3.072,-1.275 z"
         style="fill:#ffffff;stroke:#000000;stroke-width:0.52200001px;stroke-linecap:round;stroke-linejoin:round"
         transform="translate(-746.083,-1010.838)"
         id="path3404"
         inkscape:connector-curvature="0" />
      <path
         data-name="矩形 108"
         transform="rotate(-22.6,147.73,-230.294)"
         style="fill:#ffffff;stroke:#000000;stroke-width:0.52200001px;stroke-linecap:round;stroke-linejoin:round"
         d="M 0,0 H 53.807 V 2.309 H 0 Z"
         id="path3406"
         inkscape:connector-curvature="0" />
      <path
         data-name="路径 363"
         d="m 827.315,1076.714 -5.925,1.526 -13.141,-8.8 5.194,-2.153 z"
         style="fill:#ffffff;stroke:#000000;stroke-width:0.52200001px;stroke-linecap:round;stroke-linejoin:round"
         transform="translate(-746.083,-1010.838)"
         id="path3408"
         inkscape:connector-curvature="0" />
      <path
         data-name="路径 364"
         d="m 839.38,1073.616 -5.925,1.521 -14.949,-10.016 5.262,-2.189 z"
         style="fill:#ffffff;stroke:#000000;stroke-width:0.52200001px;stroke-linecap:round;stroke-linejoin:round"
         transform="translate(-746.083,-1010.838)"
         id="path3410"
         inkscape:connector-curvature="0" />
      <path
         data-name="路径 365"
         d="m 851.444,1070.518 -5.925,1.52 -16.72,-11.2 5.094,-2.085 z"
         style="fill:#ffffff;stroke:#000000;stroke-width:0.52200001px;stroke-linecap:round;stroke-linejoin:round"
         transform="translate(-746.083,-1010.838)"
         id="path3412"
         inkscape:connector-curvature="0" />
      <path
         data-name="路径 366"
         d="m 863.509,1067.414 -5.925,1.52 -18.45,-12.362 5.021,-2.127 z"
         style="fill:#ffffff;stroke:#000000;stroke-width:0.52200001px;stroke-linecap:round;stroke-linejoin:round"
         transform="translate(-746.083,-1010.838)"
         id="path3414"
         inkscape:connector-curvature="0" />
      <path
         data-name="路径 367"
         d="m 752.279,1081.26 0.93,-7.028 49.8,-2.644 12.566,8.2 -59.45,2.832 z"
         style="fill:#ffffff;stroke:#000000;stroke-width:0.52200001px;stroke-linecap:round;stroke-linejoin:round"
         transform="translate(-746.083,-1010.838)"
         id="path3416"
         inkscape:connector-curvature="0" />
      <path
         data-name="路径 368"
         d="m 753.209,1074.233 33.968,-8.532 15.832,5.889 z"
         style="fill:#ffffff;stroke:#000000;stroke-width:0.52200001px;stroke-linecap:round;stroke-linejoin:round"
         transform="translate(-746.083,-1010.838)"
         id="path3418"
         inkscape:connector-curvature="0" />
      <path
         data-name="路径 369"
         d="m 892.377,1044.079 -22.645,21.773 28.424,-7.383 z"
         style="fill:#ffffff;stroke:#000000;stroke-width:0.52200001px;stroke-linecap:round;stroke-linejoin:round"
         transform="translate(-746.083,-1010.838)"
         id="path3420"
         inkscape:connector-curvature="0" />
      <path
         data-name="路径 370"
         d="m 849.584,1052.23 42.793,-8.151 -22.645,21.773 z"
         style="fill:#ffffff;stroke:#000000;stroke-width:0.52200001px;stroke-linecap:round;stroke-linejoin:round"
         transform="translate(-746.083,-1010.838)"
         id="path3422"
         inkscape:connector-curvature="0" />
      <path
         data-name="路径 371"
         d="m 827.211,1027.15 11.208,3.01 5.1,7.414 -3.067,5.167 -11.166,-3.14 z"
         style="fill:#ffffff;stroke:#000000;stroke-width:0.52200001px;stroke-linecap:round;stroke-linejoin:round"
         transform="translate(-746.083,-1010.838)"
         id="path3424"
         inkscape:connector-curvature="0" />
      <path
         data-name="矩形 109"
         d="m 154.905,48.141 7.084,-5.89 7.91,9.515 -7.084,5.89 z"
         id="path3426"
         inkscape:connector-curvature="0" />
      <path
         data-name="路径 372"
         d="m 905.345,1056.389 1.839,7.268 1.8,-1.661 2.675,3.245 -2,-6.9 -1.761,1.6 z"
         style="fill:#56ff8b;fill-rule:evenodd"
         transform="translate(-746.083,-1010.838)"
         id="path3428"
         inkscape:connector-curvature="0" />
    </g>
  </g>
</svg>
