<?xml version="1.0" encoding="UTF-8" standalone="no"?>
<svg
   xmlns:dc="http://purl.org/dc/elements/1.1/"
   xmlns:cc="http://creativecommons.org/ns#"
   xmlns:rdf="http://www.w3.org/1999/02/22-rdf-syntax-ns#"
   xmlns:svg="http://www.w3.org/2000/svg"
   xmlns="http://www.w3.org/2000/svg"
   id="svg1911"
   version="1.1"
   viewBox="0 0 175 100"
   height="100"
   width="175">
  <metadata
     id="metadata1917">
    <rdf:RDF>
      <cc:Work
         rdf:about="">
        <dc:format>image/svg+xml</dc:format>
        <dc:type
           rdf:resource="http://purl.org/dc/dcmitype/StillImage" />
        <dc:title></dc:title>
      </cc:Work>
    </rdf:RDF>
  </metadata>
  <defs
     id="defs1915" />
  <g
     transform="matrix(0.96522069,0,0,0.96522069,2.1650209e-5,7.4860349)"
     id="g1909"
     data-name="图层 2">
    <g
       id="g1907"
       data-name="图层 1-2">
      <path
         id="path1847"
         d="M 23.516,92.514 A 3.4,3.4 0 0 1 22.252,92.268 L 2.136,84.185 A 3.407,3.407 0 0 1 0.046,80.47 l 2.842,-16.824 0.188,-0.34 a 2.594,2.594 0 0 1 0.12,-0.235 L 3.28,62.93 3.463,62.601 3.849,62.24 7.507,58.88 7.538,58.849 8.16,58.614 32.195,50.04 58.67,39.527 a 3.381,3.381 0 0 1 1.944,-3.2 l 2.612,-1.233 1.954,-2.576 a 3.412,3.412 0 0 1 2.226,-1.311 l 1.887,-1.933 a 3.363,3.363 0 0 1 1.567,-3.172 l 2.529,-1.614 1.635,-2.467 a 3.387,3.387 0 0 1 2.252,-1.473 l 0.267,-0.047 h 0.313 L 96.849,1.043 a 3.349,3.349 0 0 1 1.907,-1 3.515,3.515 0 0 1 0.523,-0.042 h 0.433 l 0.471,0.125 a 3.034,3.034 0 0 1 0.825,0.366 3.3,3.3 0 0 1 0.732,0.554 l 0.392,0.413 0.183,0.418 a 3.168,3.168 0 0 1 0.235,0.58 l 0.12,0.412 v 0.11 l 4.619,20.252 20.7,8.7 7.613,-1.959 3.433,-7.106 a 3.427,3.427 0 0 1 3.061,-1.923 l 6.4,0.115 a 3.394,3.394 0 0 1 3.229,2.555 l 1.688,6.693 16.824,-9.614 a 3.4,3.4 0 0 1 3.919,5.507 l -18.1,15.785 4.269,16.2 2.325,-0.3 h 0.241 a 3.4,3.4 0 0 1 1.264,0.246 3.347,3.347 0 0 1 1.374,1.013 l 5.157,6.333 a 3.4,3.4 0 0 1 0.664,2.978 l -1.379,5.476 10.45,11.647 a 3.4,3.4 0 0 1 -2.508,5.658 z"
         data-name="路径 373" />
      <path
         id="path1849"
         d="m 178.051,87.655 -11.532,-12.891 1.782,-7.09 a 0.262,0.262 0 0 0 -0.052,-0.23 l -5.163,-6.312 a 0.206,0.206 0 0 0 -0.235,-0.078 h -0.062 l -4.8,0.6 -5.465,-20.754 19.567,-17.091 a 0.267,0.267 0 0 0 0.042,-0.35 0.262,0.262 0 0 0 -0.345,-0.073 l -20.377,11.662 -2.7,-10.659 a 0.268,0.268 0 0 0 -0.251,-0.2 l -6.338,-0.1 a 0.252,0.252 0 0 0 -0.241,0.146 L 137.816,32.648 127.769,35.26 104.585,25.505 99.538,3.346 A 0.082,0.082 0 0 0 99.512,3.288 c -0.026,-0.02 0,-0.047 -0.037,-0.062 a 0.258,0.258 0 0 0 -0.062,-0.037 0.154,0.154 0 0 0 -0.058,-0.036 0.255,0.255 0 0 0 -0.11,0 0.311,0.311 0 0 0 -0.146,0.068 L 78.654,24.178 78.011,23.692 a 0.262,0.262 0 0 0 -0.2,-0.052 0.275,0.275 0 0 0 -0.172,0.115 l -2,3.02 -3.088,1.964 a 0.262,0.262 0 0 0 -0.089,0.351 l 0.522,0.888 -4.53,4.676 -0.334,-0.287 a 0.262,0.262 0 0 0 -0.193,-0.063 0.271,0.271 0 0 0 -0.183,0.1 l -2.2,2.905 a 0.232,0.232 0 0 0 -0.047,0.2 l -3.459,1.646 a 0.262,0.262 0 0 0 -0.131,0.34 l 0.57,1.3 -1,1.008 -28.1,11.166 L 9.3,61.553 a 0.111,0.111 0 0 0 -0.036,0 0.064,0.064 0 0 0 -0.052,0.027 L 5.993,64.526 5.962,64.573 A 0.2,0.2 0 0 0 5.935,64.631 L 3.156,80.99 a 0.261,0.261 0 0 0 0.157,0.288 l 20.131,8.072 a 0.3,0.3 0 0 0 0.1,0 l 154.33,-1.29 a 0.259,0.259 0 0 0 0.235,-0.157 0.254,0.254 0 0 0 -0.058,-0.248 z"
         data-name="路径 374" />
      <path
         id="path1851"
         transform="translate(-961.707,-1007.809)"
         style="fill:#ffffff;stroke:#000000;stroke-width:0.52200001px;stroke-linecap:round;stroke-linejoin:round"
         d="m 972.479,1075.321 -4.624,-2.769 -2.748,16.292 20.127,8.083 154.326,-1.291 -11.62,-12.989 1.813,-7.226 -5.162,-6.343 -138.9,18.282 -13.366,-4.384 z"
         data-name="路径 375" />
      <path
         id="path1853"
         transform="translate(-961.707,-1007.809)"
         style="fill:#ffffff;stroke:#000000;stroke-width:0.52200001px;stroke-linecap:round;stroke-linejoin:round"
         d="m 967.855,1072.552 3.224,-2.947 36.188,14.86 -21.579,2.895 -13.366,-4.384 0.157,-7.655 z"
         data-name="路径 376" />
      <path
         id="path1855"
         transform="translate(-961.707,-1007.809)"
         style="fill:#ffffff;stroke:#000000;stroke-width:0.52200001px;stroke-linecap:round;stroke-linejoin:round"
         d="m 971.079,1069.6 24.082,-8.585 5.873,2.56 -19.056,6.881 3.767,5.157 z"
         data-name="路径 377" />
      <path
         id="path1857"
         transform="translate(-961.707,-1007.809)"
         style="fill:#ffffff;stroke:#000000;stroke-width:0.52200001px;stroke-linecap:round;stroke-linejoin:round"
         d="m 990.5,1067.379 14.348,5.324 26.078,-5.821 37.411,-26.2 21.778,9.159 22.818,-6.521 -2.79,-11.056 -6.343,-0.11 -4.117,8.527 -10.251,2.639 -23.361,-9.818 -37.228,27.452 -23.889,5.93 -6.594,-2.372 z"
         data-name="路径 378" />
      <path
         id="path1859"
         transform="translate(-961.707,-1007.809)"
         style="fill:#ffffff;stroke:#000000;stroke-width:0.52200001px;stroke-linecap:round;stroke-linejoin:round"
         d="m 995.161,1061.02 28.158,-11.182 37.672,-38.639 5.079,22.3 -37.228,27.452 -23.889,6.035 -6.594,-2.477 2.675,-0.93 z"
         data-name="路径 379" />
      <path
         id="path1861"
         transform="translate(-961.707,-1007.809)"
         style="fill:#ffffff;stroke:#000000;stroke-width:0.52200001px;stroke-linecap:round;stroke-linejoin:round"
         d="m 1001.034,1063.581 26.115,-9.327 35.614,-35.122 -1.771,-7.932 -37.672,38.639 -28.158,11.182 z"
         data-name="路径 380" />
      <path
         id="path1863"
         transform="translate(-961.707,-1007.809)"
         style="fill:#ffffff;stroke:#000000;stroke-width:0.52200001px;stroke-linecap:round;stroke-linejoin:round"
         d="m 1050.74,1078.8 82.884,-47.375 -38.8,33.895 24.672,4.431 z"
         data-name="路径 381" />
      <path
         id="path1865"
         transform="translate(-961.707,-1007.809)"
         style="fill:#ffffff;stroke:#000000;stroke-width:0.52200001px;stroke-linecap:round;stroke-linejoin:round"
         d="m 1113.936,1048.621 -19.108,16.694 24.672,4.431 z"
         data-name="路径 382" />
      <path
         id="path1867"
         transform="translate(-961.707,-1007.809)"
         style="fill:#ffffff;stroke:#000000;stroke-width:0.52200001px;stroke-linecap:round;stroke-linejoin:round"
         d="m 1026.752,1081.852 33.477,-23.46 -9.489,20.4 z"
         data-name="路径 383" />
      <path
         id="path1869"
         transform="translate(-961.707,-1007.809)"
         style="fill:#ffffff;stroke:#000000;stroke-width:0.52200001px;stroke-linecap:round;stroke-linejoin:round"
         d="m 990.5,1067.379 14.348,5.324 26.078,-5.821 -4.175,14.97 -19.484,2.613 -21.522,-8.846 -3.767,-5.157 z"
         data-name="路径 384" />
      <path
         id="path1871"
         transform="translate(-961.707,-1007.809)"
         style="fill:#ffffff;stroke:#000000;stroke-width:0.52200001px;stroke-linecap:round;stroke-linejoin:round"
         d="m 1112.933,1043.318 -52.7,15.074 -9.489,20.4 z"
         data-name="路径 385" />
      <path
         id="path1873"
         transform="translate(-961.707,-1007.809)"
         style="fill:#ffffff;stroke:#000000;stroke-width:0.52200001px;stroke-linecap:round;stroke-linejoin:round"
         d="m 1068.337,1040.679 -37.411,26.2 59.189,-17.044 z"
         data-name="路径 386" />
      <path
         id="path1875"
         transform="translate(-961.707,-1007.809)"
         style="fill:#ffffff;stroke:#000000;stroke-width:0.52200001px;stroke-linecap:round;stroke-linejoin:round"
         d="m 1060.228,1058.392 -29.3,8.491 -4.175,14.97 z"
         data-name="路径 387" />
      <path
         id="path1877"
         transform="translate(-961.707,-1007.809)"
         style="fill:#ffffff;stroke:#000000;stroke-width:0.52200001px;stroke-linecap:round;stroke-linejoin:round"
         d="m 1039.814,1080.191 4.258,5.235 83.866,-2.78 1.813,-7.226 -5.162,-6.343 z"
         data-name="路径 388" />
      <path
         id="path1879"
         transform="translate(-961.707,-1007.809)"
         style="fill:#ffffff;stroke:#000000;stroke-width:0.52200001px;stroke-linecap:round;stroke-linejoin:round"
         d="m 1035.127,1063.925 -3.031,2.106 -8.266,-18.831 3.558,-1.688 z"
         data-name="路径 389" />
      <path
         id="path1881"
         transform="translate(-961.707,-1007.809)"
         style="fill:#ffffff;stroke:#000000;stroke-width:0.52200001px;stroke-linecap:round;stroke-linejoin:round"
         d="m 1043.08,1058.35 2.837,-2.059 -16.276,-13.919 -2.21,2.905 z"
         data-name="路径 390" />
      <path
         id="path1883"
         transform="translate(-961.707,-1007.809)"
         style="fill:#ffffff;stroke:#000000;stroke-width:0.52200001px;stroke-linecap:round;stroke-linejoin:round"
         d="m 1048.994,1054.249 -3.031,2.106 -11.573,-19.578 3.14,-2 z"
         data-name="路径 391" />
      <path
         id="path1885"
         transform="translate(-961.707,-1007.809)"
         style="fill:#ffffff;stroke:#000000;stroke-width:0.52200001px;stroke-linecap:round;stroke-linejoin:round"
         d="m 1059.554,1046.808 -3.239,2.315 -18.784,-14.348 2.032,-3.067 z"
         data-name="路径 392" />
      <path
         id="path1887"
         transform="translate(-961.707,-1007.809)"
         style="fill:#ffffff;stroke:#000000;stroke-width:0.52200001px;stroke-linecap:round;stroke-linejoin:round"
         d="m 1039.814,1080.191 4.258,5.235 -58.384,1.933 z"
         data-name="路径 393" />
      <path
         id="path1889"
         transform="translate(-961.707,-1007.809)"
         style="fill:#ffffff;stroke:#000000;stroke-width:0.52200001px;stroke-linecap:round;stroke-linejoin:round"
         d="m 1119.5,1069.746 4.739,5.711 -1.4,7.362 -5.424,0.146 1.322,-6.766 -4.373,-5.737 z"
         data-name="路径 394" />
      <path
         id="path1891"
         transform="translate(-961.707,-1007.809)"
         style="fill:#ffffff;stroke:#000000;stroke-width:0.52200001px;stroke-linecap:round;stroke-linejoin:round"
         d="m 1108.711,1071.178 4.347,5.591 -1.066,6.443 -5.883,0.178 1.16,-5.742 -4.232,-5.768 z"
         data-name="路径 395" />
      <path
         id="path1893"
         transform="translate(-961.707,-1007.809)"
         style="fill:#ffffff;stroke:#000000;stroke-width:0.52200001px;stroke-linecap:round;stroke-linejoin:round"
         d="m 1097.665,1072.677 4.034,5.178 -1.306,5.727 -5.753,0.188 1.322,-5.241 -3.987,-5.079 z"
         data-name="路径 396" />
      <path
         id="path1895"
         transform="translate(-961.707,-1007.809)"
         style="fill:#ffffff;stroke:#000000;stroke-width:0.52200001px;stroke-linecap:round;stroke-linejoin:round"
         d="m 1086.16,1074.151 4.034,5.173 -1.123,4.635 -5.753,0.188 1.139,-4.143 -3.992,-5.084 z"
         data-name="路径 397" />
      <path
         id="path1897"
         transform="translate(-961.707,-1007.809)"
         style="fill:#ffffff;stroke:#000000;stroke-width:0.52200001px;stroke-linecap:round;stroke-linejoin:round"
         d="m 1074.8,1075.671 4.034,5.178 -0.941,3.511 -5.753,0.193 0.956,-3.031 -3.987,-5.084 z"
         data-name="路径 398" />
      <path
         id="path1899"
         transform="translate(-961.707,-1007.809)"
         style="fill:#ffffff;stroke:#000000;stroke-width:0.52200001px;stroke-linecap:round;stroke-linejoin:round"
         d="m 1063.28,1077.108 4.034,5.173 -0.946,2.4 -5.753,0.193 0.961,-1.912 -3.987,-5.084 z"
         data-name="路径 399" />
      <path
         id="path1901"
         transform="translate(-961.707,-1007.809)"
         style="fill:#ffffff;stroke:#000000;stroke-width:0.52200001px;stroke-linecap:round;stroke-linejoin:round"
         d="m 1051.591,1078.676 4.034,5.173 -0.35,1.207 -5.753,0.188 0.366,-0.716 -3.987,-5.084 z"
         data-name="路径 400" />
      <path
         id="path1903"
         d="m 153.567,43.978 8.908,-2.34 3.143,11.965 -8.908,2.34 z"
         data-name="矩形 110" />
      <path
         id="path1905"
         transform="translate(-961.707,-1007.809)"
         style="fill:#56ff8b;fill-rule:evenodd"
         d="m 1120.305,1051.291 -1.411,7.362 2.341,-0.747 1.045,4.07 1.108,-7.09 -2.273,0.705 z"
         data-name="路径 401" />
    </g>
  </g>
</svg>
