<?xml version="1.0" encoding="UTF-8" standalone="no"?>
<svg
   xmlns:dc="http://purl.org/dc/elements/1.1/"
   xmlns:cc="http://creativecommons.org/ns#"
   xmlns:rdf="http://www.w3.org/1999/02/22-rdf-syntax-ns#"
   xmlns:svg="http://www.w3.org/2000/svg"
   xmlns="http://www.w3.org/2000/svg"
   width="50"
   height="50"
   viewBox="0 0 7.9375 7.9375"
   version="1.1"
   id="svg8">
  <defs
     id="defs2" />
  <metadata
     id="metadata5">
    <rdf:RDF>
      <cc:Work
         rdf:about="">
        <dc:format>image/svg+xml</dc:format>
        <dc:type
           rdf:resource="http://purl.org/dc/dcmitype/StillImage" />
        <dc:title></dc:title>
      </cc:Work>
    </rdf:RDF>
  </metadata>
  <path
     id="path830"
     d="M 0.80306218,1.2134693 H 1.2939747 l 0.077802,0.077803 h 0.5270729 l 0.095885,-0.095883 c 0,0 0.9544095,0.00475 0.9626467,0 0.0083,-0.00475 0.099991,0.09999 0.099991,0.09999 H 6.2206272 L 6.3306161,1.18539 h 0.4532435 l 0.7407489,1.6739475 h 0.1994333 v 1.2667288 h -0.19176 V 5.5582587 H 7.7262339 V 6.5072055 H 0.134918 V 5.5603131 H 0.30228414 V 4.1563077 H 0.11632177 V 2.8762784 h 0.23245085 z"
     style="fill:none;stroke:#000000;stroke-width:0.06953473;stroke-linecap:butt;stroke-linejoin:miter;stroke-miterlimit:4;stroke-dasharray:none;stroke-opacity:1" />
  <rect
     y="5.9198103"
     x="1.0059657"
     height="0.54542619"
     width="1.0124618"
     id="rect834-3-6"
     style="fill:#ffffff;fill-opacity:1;stroke:#000000;stroke-width:0.03557557;stroke-miterlimit:4;stroke-dasharray:none;stroke-opacity:1" />
  <rect
     y="5.9092522"
     x="3.5587778"
     height="0.57542181"
     width="3.2982345"
     id="rect834-3-7-3"
     style="fill:#ffffff;fill-opacity:1;stroke:#000000;stroke-width:0.0380473;stroke-miterlimit:4;stroke-dasharray:none;stroke-opacity:1" />
  <rect
     y="2.9106939"
     x="0.11619738"
     height="1.1905466"
     width="2.6625669"
     id="rect926"
     style="fill:#ffffff;fill-opacity:1;stroke:#000000;stroke-width:0.03726193;stroke-miterlimit:4;stroke-dasharray:none;stroke-opacity:1" />
  <rect
     y="2.9106939"
     x="2.7787621"
     height="1.1929257"
     width="0.99788916"
     id="rect928"
     style="fill:#ffffff;fill-opacity:1;stroke:#000000;stroke-width:0.0380473;stroke-miterlimit:4;stroke-dasharray:none;stroke-opacity:1" />
  <rect
     y="3.4589548"
     x="0.094626032"
     height="0.012397393"
     width="3.6820254"
     id="rect930"
     style="fill:none;fill-opacity:1;stroke:#000000;stroke-width:0.0380473;stroke-miterlimit:4;stroke-dasharray:none;stroke-opacity:1" />
  <rect
     y="4.1036201"
     x="2.2765651"
     height="1.4628921"
     width="0.5021953"
     id="rect932"
     style="fill:#ffffff;fill-opacity:1;stroke:#000000;stroke-width:0.0380473;stroke-miterlimit:4;stroke-dasharray:none;stroke-opacity:1" />
  <rect
     y="4.1036201"
     x="2.7787621"
     height="1.4504946"
     width="0.54538441"
     id="rect934"
     style="fill:#ffffff;fill-opacity:1;stroke:#000000;stroke-width:0.0380473;stroke-miterlimit:4;stroke-dasharray:none;stroke-opacity:1" />
  <rect
     y="4.1028433"
     x="0.30538329"
     height="1.4636699"
     width="0.54548573"
     id="rect938"
     style="fill:#ffffff;fill-opacity:1;stroke:#000000;stroke-width:0.0380473;stroke-miterlimit:4;stroke-dasharray:none;stroke-opacity:1" />
  <path
     id="path965-2"
     d="M 2.7787616,2.9106888 3.2903585,2.9083268 2.9612579,1.1889115 2.4752302,1.1959668 Z"
     style="fill:#ffffff;stroke:#000000;stroke-width:0.0432952;stroke-linecap:butt;stroke-linejoin:miter;stroke-miterlimit:4;stroke-dasharray:none;stroke-opacity:1" />
  <rect
     y="5.5742998"
     x="0.1349151"
     height="0.93910217"
     width="0.87091869"
     id="rect834"
     style="fill:#ffffff;fill-opacity:1;stroke:#000000;stroke-width:0.0432952;stroke-miterlimit:4;stroke-dasharray:none;stroke-opacity:1" />
  <rect
     y="5.5609908"
     x="2.0161452"
     height="0.93910217"
     width="0.77181947"
     id="rect834-3"
     style="fill:#ffffff;fill-opacity:1;stroke:#000000;stroke-width:0.04075764;stroke-miterlimit:4;stroke-dasharray:none;stroke-opacity:1" />
  <rect
     ry="0"
     y="2.9058094"
     x="6.5499206"
     height="1.1940504"
     width="1.183533"
     id="rect1012"
     style="fill:#ffffff;fill-opacity:1;stroke:#000000;stroke-width:0.04306699;stroke-miterlimit:4;stroke-dasharray:none;stroke-opacity:1" />
  <rect
     y="3.462054"
     x="6.5660663"
     height="0.0031003011"
     width="1.1157645"
     id="rect1008"
     style="fill:#ffffff;fill-opacity:1;stroke:#000000;stroke-width:0.0432952;stroke-miterlimit:4;stroke-dasharray:none;stroke-opacity:1" />
  <rect
     y="1.2529188"
     x="0.92798376"
     height="1.6524382"
     width="1.3368572"
     id="rect1014"
     style="fill:#9086d7;fill-opacity:1;stroke:#000000;stroke-width:0.0380473;stroke-miterlimit:4;stroke-dasharray:none;stroke-opacity:1" />
  <path
     id="path946"
     d="M 1.2939747,1.2134693 0.93764691,2.9026227 0.34954319,2.9057162 0.80306218,1.2134613 Z"
     style="fill:#ffffff;stroke:#000000;stroke-width:0.04067124;stroke-linecap:butt;stroke-linejoin:miter;stroke-miterlimit:4;stroke-dasharray:none;stroke-opacity:1" />
  <path
     id="path965"
     d="m 2.2648403,2.9053621 0.5139213,0.00533 -0.3035314,-1.7147657 -0.4805,-5.248e-4 z"
     style="fill:#ffffff;stroke:#000000;stroke-width:0.0432952;stroke-linecap:butt;stroke-linejoin:miter;stroke-miterlimit:4;stroke-dasharray:none;stroke-opacity:1" />
  <rect
     y="4.1162882"
     x="6.9946413"
     height="1.4551448"
     width="0.54693675"
     id="rect934-2"
     style="fill:#ffffff;fill-opacity:1;stroke:#000000;stroke-width:0.03804731;stroke-miterlimit:4;stroke-dasharray:none;stroke-opacity:1" />
  <path
     id="path1048"
     d="M 6.9516349,2.9045487 6.3306134,1.1853905 h 0.4532434 l 0.751707,1.7210658 z"
     style="fill:#ffffff;stroke:#000000;stroke-width:0.0432952;stroke-linecap:butt;stroke-linejoin:miter;stroke-miterlimit:4;stroke-dasharray:none;stroke-opacity:1" />
  <rect
     y="5.5609908"
     x="2.7879643"
     height="0.93910217"
     width="0.77181947"
     id="rect834-3-7"
     style="fill:#ffffff;fill-opacity:1;stroke:#000000;stroke-width:0.04075764;stroke-miterlimit:4;stroke-dasharray:none;stroke-opacity:1" />
  <rect
     y="4.1028433"
     x="0.85086817"
     height="1.8181199"
     width="1.4227388"
     id="rect942"
     style="fill:#9086d7;fill-opacity:1;stroke:#000000;stroke-width:0.0380473;stroke-miterlimit:4;stroke-dasharray:none;stroke-opacity:1" />
  <path
     id="path1052"
     d="M 3.7766476,2.9106941 6.5500335,2.9059132 6.9516349,2.9046014 6.3306134,1.1854433 6.2206249,1.2954347 H 3.0573691 l -0.085156,-0.040722 0.3181426,1.6536671 z"
     style="fill:#9086d7;fill-opacity:1;stroke:#000000;stroke-width:0.0432952;stroke-linecap:butt;stroke-linejoin:miter;stroke-miterlimit:4;stroke-dasharray:none;stroke-opacity:1" />
  <rect
     y="4.1036201"
     x="3.3241479"
     height="1.8100208"
     width="3.6634271"
     id="rect1054"
     style="fill:#9086d7;fill-opacity:1;stroke:#000000;stroke-width:0.0432952;stroke-miterlimit:4;stroke-dasharray:none;stroke-opacity:1" />
  <g
     id="g1853">
    <path
       style="fill:#ae94ee;fill-opacity:1;stroke:#000000;stroke-width:0.0432952;stroke-linecap:butt;stroke-linejoin:miter;stroke-miterlimit:4;stroke-dasharray:none;stroke-opacity:1"
       d="M 0.86880778,4.9939283 1.5569628,4.1173027 2.2516915,4.9917373 1.5569628,5.9012389 Z"
       id="path944" />
    <path
       style="fill:#ae94ee;fill-opacity:1;stroke:#000000;stroke-width:0.0432952;stroke-linecap:butt;stroke-linejoin:miter;stroke-miterlimit:4;stroke-dasharray:none;stroke-opacity:1"
       d="m 1.6248992,2.0835221 c 0,0 -0.2892844,-0.3638005 -0.2914751,-0.3747581 -0.00211,-0.010968 0.2783276,-0.4142066 0.2783276,-0.4142066 l 0.302436,0.3944823 z"
       id="path1016" />
    <path
       style="fill:#ae94ee;fill-opacity:1;stroke:#000000;stroke-width:0.0432952;stroke-linecap:butt;stroke-linejoin:miter;stroke-miterlimit:4;stroke-dasharray:none;stroke-opacity:1"
       d="m 1.638048,2.8724867 c 0,0 -0.2892843,-0.3638005 -0.2914765,-0.3747581 -0.00211,-0.010968 0.2783277,-0.4142065 0.2783277,-0.4142065 l 0.3024374,0.3944822 z"
       id="path1016-1" />
    <path
       style="fill:#ae94ee;fill-opacity:1;stroke:#000000;stroke-width:0.0432952;stroke-linecap:butt;stroke-linejoin:miter;stroke-miterlimit:4;stroke-dasharray:none;stroke-opacity:1"
       d="M 4.2663452,4.1092865 5.1357141,4.9961193 4.2663452,5.901241 3.3380942,4.9961193 Z"
       id="path1060" />
    <path
       style="fill:#ae94ee;fill-opacity:1;stroke:#000000;stroke-width:0.0432952;stroke-linecap:butt;stroke-linejoin:miter;stroke-miterlimit:4;stroke-dasharray:none;stroke-opacity:1"
       d="M 6.0639651,4.1092865 6.9333326,4.9961193 6.0639651,5.901241 5.1357141,4.9961193 Z"
       id="path1060-7" />
    <path
       style="fill:#ae94ee;fill-opacity:1;stroke:#000000;stroke-width:0.0432952;stroke-linecap:butt;stroke-linejoin:miter;stroke-miterlimit:4;stroke-dasharray:none;stroke-opacity:1"
       d="m 3.1699561,2.0857131 c -0.00436,-0.030682 0.7297951,-0.788962 0.7297951,-0.788962 L 4.8771905,2.0944823 4.2663452,2.8965955 Z"
       id="path1079" />
    <path
       style="fill:#ae94ee;fill-opacity:1;stroke:#000000;stroke-width:0.0432952;stroke-linecap:butt;stroke-linejoin:miter;stroke-miterlimit:4;stroke-dasharray:none;stroke-opacity:1"
       d="M 4.9205813,2.0913834 C 4.9162222,2.0607014 5.6043519,1.3068035 5.6043519,1.3068035 L 6.6212406,2.1001527 5.9709459,2.906648 Z"
       id="path1079-0" />
  </g>
  <path
     id="path1096"
     d="M 3.7766476,2.9106941 4.1279611,2.5593811 H 6.1833677 L 6.538257,2.9142705 V 4.0844272 L 6.167955,4.4547298 H 4.1715052 L 3.7766476,4.1036188 Z"
     style="fill:#ffdc33;fill-opacity:1;stroke:#000000;stroke-width:0.0432952;stroke-linecap:butt;stroke-linejoin:miter;stroke-miterlimit:4;stroke-dasharray:none;stroke-opacity:1" />
  <path
     id="path1100"
     d="M 4.0575443,3.09822 C 4.0750793,3.08946 4.3534051,2.802359 4.3534051,2.802359 H 5.9072294 L 6.1888446,3.0839747 V 3.9879968 L 5.958181,4.207703 H 4.3583914 L 4.0674323,3.9320856 Z"
     style="fill:#ffffff;stroke:#000000;stroke-width:0.0432952;stroke-linecap:butt;stroke-linejoin:miter;stroke-miterlimit:4;stroke-dasharray:none;stroke-opacity:1" />
  <path
     id="path1102"
     d="m 4.4301117,3.5694085 0.2695632,-0.403249 c 0,0 -0.089852,0.2936699 -0.072318,0.2936699 0.01752,0 0.1424548,-0.00876 0.1424548,-0.00876 L 4.5199726,3.8499362 4.5966777,3.5518814 Z"
     style="fill:#000000;stroke:#000000;stroke-width:0.01705568;stroke-linecap:butt;stroke-linejoin:miter;stroke-miterlimit:4;stroke-dasharray:none;stroke-opacity:1" />
  <path
     id="path1102-9"
     d="M 4.7999286,3.5673223 5.0694932,3.1640735 c 0,0 -0.089852,0.2936699 -0.072318,0.2936699 0.017534,0 0.1424549,-0.00876 0.1424549,-0.00876 L 4.889791,3.8478503 4.9664961,3.5497955 Z"
     style="fill:#000000;stroke:#000000;stroke-width:0.01705568;stroke-linecap:butt;stroke-linejoin:miter;stroke-miterlimit:4;stroke-dasharray:none;stroke-opacity:1" />
  <path
     id="path1102-3"
     d="m 5.1724931,3.5585557 0.2695646,-0.403249 c 0,0 -0.089852,0.2936701 -0.072318,0.2936701 0.017535,0 0.1424549,-0.00876 0.1424549,-0.00876 L 5.2623555,3.8390834 5.3390606,3.5410287 Z"
     style="fill:#000000;stroke:#000000;stroke-width:0.01705568;stroke-linecap:butt;stroke-linejoin:miter;stroke-miterlimit:4;stroke-dasharray:none;stroke-opacity:1" />
  <path
     id="path1102-6"
     d="m 5.5757425,3.5410225 0.2695632,-0.403249 c 0,0 -0.089852,0.2936701 -0.072318,0.2936701 0.017521,0 0.1424549,-0.00876 0.1424549,-0.00876 L 5.6656021,3.8215503 5.7423072,3.5234956 Z"
     style="fill:#000000;stroke:#000000;stroke-width:0.01705568;stroke-linecap:butt;stroke-linejoin:miter;stroke-miterlimit:4;stroke-dasharray:none;stroke-opacity:1" />
  <g
     id="g1938">
    <ellipse
       style="fill:#a089de;fill-opacity:1;stroke:#000000;stroke-width:0.01705568;stroke-miterlimit:4;stroke-dasharray:none;stroke-opacity:1"
       id="path1131"
       cx="4.3545017"
       cy="3.0708272"
       rx="0.084375441"
       ry="0.082183875" />
    <ellipse
       style="fill:#a089de;fill-opacity:1;stroke:#000000;stroke-width:0.01705568;stroke-miterlimit:4;stroke-dasharray:none;stroke-opacity:1"
       id="path1131-0"
       cx="4.3643637"
       cy="3.9441674"
       rx="0.084375441"
       ry="0.082183875" />
    <ellipse
       style="fill:#a089de;fill-opacity:1;stroke:#000000;stroke-width:0.01705568;stroke-miterlimit:4;stroke-dasharray:none;stroke-opacity:1"
       id="path1131-6"
       cx="5.9795499"
       cy="3.9573159"
       rx="0.084375441"
       ry="0.082183875" />
    <ellipse
       style="fill:#a089de;fill-opacity:1;stroke:#000000;stroke-width:0.01705568;stroke-miterlimit:4;stroke-dasharray:none;stroke-opacity:1"
       id="path1131-2"
       cx="5.9751701"
       cy="3.0587757"
       rx="0.084375441"
       ry="0.082183875" />
  </g>
  <rect
     y="5.5714011"
     x="6.8553114"
     height="0.93910217"
     width="0.87091869"
     id="rect834-5"
     style="fill:#ffffff;fill-opacity:1;stroke:#000000;stroke-width:0.0432952;stroke-miterlimit:4;stroke-dasharray:none;stroke-opacity:1" />
</svg>
