<?xml version="1.0" encoding="UTF-8" standalone="no"?>
<svg
   xmlns:dc="http://purl.org/dc/elements/1.1/"
   xmlns:cc="http://creativecommons.org/ns#"
   xmlns:rdf="http://www.w3.org/1999/02/22-rdf-syntax-ns#"
   xmlns:svg="http://www.w3.org/2000/svg"
   xmlns="http://www.w3.org/2000/svg"
   xmlns:sodipodi="http://sodipodi.sourceforge.net/DTD/sodipodi-0.dtd"
   xmlns:inkscape="http://www.inkscape.org/namespaces/inkscape"
   width="175"
   height="100"
   viewBox="0 0 175.00001 99.999996"
   version="1.1"
   id="svg2685"
   sodipodi:docname="trainer.svg"
   inkscape:version="0.92.5 (2060ec1f9f, 2020-04-08)">
  <metadata
     id="metadata2691">
    <rdf:RDF>
      <cc:Work
         rdf:about="">
        <dc:format>image/svg+xml</dc:format>
        <dc:type
           rdf:resource="http://purl.org/dc/dcmitype/StillImage" />
        <dc:title></dc:title>
      </cc:Work>
    </rdf:RDF>
  </metadata>
  <defs
     id="defs2689" />
  <sodipodi:namedview
     pagecolor="#ffffff"
     bordercolor="#666666"
     borderopacity="1"
     objecttolerance="10"
     gridtolerance="10"
     guidetolerance="10"
     inkscape:pageopacity="0"
     inkscape:pageshadow="2"
     inkscape:window-width="1848"
     inkscape:window-height="1016"
     id="namedview2687"
     showgrid="false"
     inkscape:zoom="2.3819856"
     inkscape:cx="87.255997"
     inkscape:cy="49.538502"
     inkscape:window-x="72"
     inkscape:window-y="27"
     inkscape:window-maximized="1"
     inkscape:current-layer="svg2685" />
  <g
     data-name="图层 2"
     id="g2683"
     transform="translate(0,0.92299652)">
    <g
       data-name="图层 1-2"
       id="g2681">
      <path
         data-name="路径 402"
         d="M 33.892,99.077 A 3.263,3.263 0 0 1 32.915,98.931 L 2.442,89.871 A 3.392,3.392 0 0 1 0.493,84.855 l 6.438,-10.842 0.151,-0.3 0.084,-0.094 7.226,-11.741 0.392,-0.24 a 3.726,3.726 0 0 1 0.705,-0.428 l 0.2,-0.079 0.136,-0.042 a 3.077,3.077 0 0 1 0.569,-0.135 L 67.239,53.43 81.707,39.186 85.181,35.774 A 3.391,3.391 0 0 1 83.948,32.54 l 1.8,-10.393 a 3.412,3.412 0 0 1 1.4,-2.2 2.19,2.19 0 0 0 1.954,-1.845 L 84.246,4.541 A 3.4,3.4 0 0 1 88.468,0.157 L 155.4,21.423 a 3.382,3.382 0 0 1 2.242,4.18 l -0.941,3.344 a 3.423,3.423 0 0 1 0.81,2.832 l -2.775,16.015 1.4,6.113 h 0.721 l 0.444,0.219 0.245,0.1 c 0.1,0.047 0.194,0.1 0.283,0.151 l 0.449,0.23 0.439,0.523 a 3.386,3.386 0 0 1 0.308,0.454 2.914,2.914 0 0 1 0.2,0.429 l 14.912,37.212 0.361,0.737 -0.063,0.523 0.073,0.4 -0.245,0.742 a 3.274,3.274 0 0 1 -0.418,0.841 3.085,3.085 0 0 1 -0.523,0.617 l -0.057,0.062 -0.716,0.575 -0.455,0.089 a 3.531,3.531 0 0 1 -1.019,0.178 l -55.8,0.841 -0.287,-0.047 a 3.276,3.276 0 0 1 -0.737,-0.214 3.433,3.433 0 0 1 -0.8,-0.471 2.2,2.2 0 0 1 -0.209,-0.177 l -0.319,-0.256 -0.3,-0.5 a 3.325,3.325 0 0 1 -0.246,-0.522 3.6,3.6 0 0 1 -0.177,-0.612 l -1.761,-8.882 -11.328,10.319 a 3.382,3.382 0 0 1 -2.247,0.883 l -62.961,0.664 z"
         id="path2615"
         inkscape:connector-curvature="0" />
      <path
         data-name="路径 403"
         d="m 171.283,94.697 a 0.231,0.231 0 0 0 0,-0.083 0.21,0.21 0 0 0 0,-0.079 L 156.329,57.203 v -0.068 h -0.031 l -0.058,-0.042 h -0.146 a 0.1,0.1 0 0 0 -0.042,0 l -2.215,0.643 -2.3,-9.86 2.879,-16.636 a 0.261,0.261 0 0 0 -0.209,-0.3 l -1.265,-0.215 1.677,-5.966 a 0.261,0.261 0 0 0 -0.172,-0.324 L 87.52,3.143 a 0.272,0.272 0 0 0 -0.266,0.068 0.261,0.261 0 0 0 -0.058,0.271 l 6.045,16.9 -1.567,-0.272 a 0.261,0.261 0 0 0 -0.3,0.209 l -0.444,2.467 -1.8,-0.314 a 0.245,0.245 0 0 0 -0.2,0.042 0.271,0.271 0 0 0 -0.1,0.167 l -1.8,10.387 a 0.256,0.256 0 0 0 0.2,0.3 h 0.013 l 1.8,0.313 -0.56,3.234 -4.577,4.5 -15.2,14.954 -51.853,7.675 h -0.047 a 0.26,0.26 0 0 0 -0.105,0.095 L 9.679,75.524 3.19,86.455 a 0.25,0.25 0 0 0 0,0.229 0.274,0.274 0 0 0 0.167,0.157 l 30.461,9.092 h 0.074 l 62.945,-0.664 a 0.264,0.264 0 0 0 0.173,-0.068 l 15.434,-14.055 2.848,14.358 v 0.084 h 0.031 l 0.042,0.042 a 0.266,0.266 0 0 0 0.078,0.041 h 0.079 l 55.484,-0.836 a 0.332,0.332 0 0 0 0.157,-0.057 c 0.026,0 0.031,-0.042 0.047,-0.063 0.016,-0.021 0.029,-0.041 0.042,-0.062 z"
         id="path2617"
         inkscape:connector-curvature="0" />
      <path
         data-name="矩形 111"
         transform="rotate(-80.18,66.37,-34.18)"
         style="fill:#ffffff;stroke:#000000;stroke-width:0.52200001px;stroke-linecap:round;stroke-linejoin:round"
         d="M 0,0 H 16.934 V 63.473 H 0 Z"
         id="path2619"
         inkscape:connector-curvature="0" />
      <path
         data-name="路径 404"
         d="m 1279.394,1024.416 -6.2,-17.316 66.927,21.281 -1.756,6.244 z"
         style="fill:#ffffff;fill-rule:evenodd;stroke:#000000;stroke-width:0.52200001px;stroke-linecap:round;stroke-linejoin:round"
         transform="translate(-1185.754,-1003.703)"
         id="path2621"
         inkscape:connector-curvature="0" />
      <path
         data-name="矩形 112"
         transform="rotate(-80.256,63.565,-35.419)"
         style="fill:#ffffff;stroke:#000000;stroke-width:0.52499998px;stroke-linecap:round;stroke-linejoin:round"
         d="M 0,0 H 10.591 V 16.443 H 0 Z"
         id="path2623"
         inkscape:connector-curvature="0" />
      <path
         data-name="路径 405"
         d="m 1290.967,1029.223 2.409,6.051 -4.206,4.337 z"
         style="fill:#ffffff;fill-rule:evenodd;stroke:#000000;stroke-width:0.52200001px;stroke-linecap:round;stroke-linejoin:round"
         transform="translate(-1185.754,-1003.703)"
         id="path2625"
         inkscape:connector-curvature="0" />
      <path
         data-name="路径 406"
         d="m 1337.025,1051.58 2.3,10.074 -42.981,12.545 z"
         style="fill:#ffffff;fill-rule:evenodd;stroke:#000000;stroke-width:0.52200001px;stroke-linecap:round;stroke-linejoin:round"
         transform="translate(-1185.754,-1003.703)"
         id="path2627"
         inkscape:connector-curvature="0" />
      <path
         data-name="路径 407"
         d="m 1322.458,1049.057 14.567,2.524 -40.677,22.619 z"
         style="fill:#ffffff;fill-rule:evenodd;stroke:#000000;stroke-width:0.52200001px;stroke-linecap:round;stroke-linejoin:round"
         transform="translate(-1185.754,-1003.703)"
         id="path2629"
         inkscape:connector-curvature="0" />
      <path
         data-name="路径 408"
         d="m 1297.89,1044.8 -7.258,4.253 -20.79,-3.746 4.64,-4.561 z"
         style="fill:#ffffff;fill-rule:evenodd;stroke:#000000;stroke-width:0.52200001px;stroke-linecap:round;stroke-linejoin:round"
         transform="translate(-1185.754,-1003.703)"
         id="path2631"
         inkscape:connector-curvature="0" />
      <path
         data-name="路径 409"
         d="m 1269.842,1045.31 -15.257,15.011 10.9,3.684 25.148,-14.949 z"
         style="fill:#ffffff;fill-rule:evenodd;stroke:#000000;stroke-width:0.52200001px;stroke-linecap:round;stroke-linejoin:round"
         transform="translate(-1185.754,-1003.703)"
         id="path2633"
         inkscape:connector-curvature="0" />
      <path
         data-name="路径 410"
         d="m 1265.485,1064.005 56.973,-14.949 -24.568,-4.253 z"
         style="fill:#ffffff;fill-rule:evenodd;stroke:#000000;stroke-width:0.52200001px;stroke-linecap:round;stroke-linejoin:round"
         transform="translate(-1185.754,-1003.703)"
         id="path2635"
         inkscape:connector-curvature="0" />
      <path
         data-name="路径 411"
         d="m 1265.485,1064.005 30.864,10.194 26.109,-25.143 z"
         style="fill:#ffffff;fill-rule:evenodd;stroke:#000000;stroke-width:0.52200001px;stroke-linecap:round;stroke-linejoin:round"
         transform="translate(-1185.754,-1003.703)"
         id="path2637"
         inkscape:connector-curvature="0" />
      <path
         data-name="路径 412"
         d="m 1254.585,1060.322 -51.942,7.678 18.387,4.4 44.454,-8.4 z"
         style="fill:#ffffff;fill-rule:evenodd;stroke:#000000;stroke-width:0.52200001px;stroke-linecap:round;stroke-linejoin:round"
         transform="translate(-1185.754,-1003.703)"
         id="path2639"
         inkscape:connector-curvature="0" />
      <path
         data-name="路径 413"
         d="m 1202.643,1068 -6.991,11.359 21.292,5.936 4.086,-12.89 z"
         style="fill:#ffffff;fill-rule:evenodd;stroke:#000000;stroke-width:0.52200001px;stroke-linecap:round;stroke-linejoin:round"
         transform="translate(-1185.754,-1003.703)"
         id="path2641"
         inkscape:connector-curvature="0" />
      <path
         data-name="路径 414"
         d="m 1216.944,1085.3 79.4,-11.1 -30.864,-10.194 -44.454,8.4 z"
         style="fill:#ffffff;stroke:#000000;stroke-width:0.52200001px;stroke-linecap:round;stroke-linejoin:round"
         transform="translate(-1185.754,-1003.703)"
         id="path2643"
         inkscape:connector-curvature="0" />
      <path
         data-name="路径 415"
         d="m 1265.485,1064.005 -1.7,14.745 32.567,-4.551 z"
         style="fill:#ffffff;stroke:#000000;stroke-width:0.52200001px;stroke-linecap:round;stroke-linejoin:round"
         transform="translate(-1185.754,-1003.703)"
         id="path2645"
         inkscape:connector-curvature="0" />
      <path
         data-name="路径 416"
         d="m 1223.575,1071.9 -3.584,12.948 4.264,-0.554 3.48,-13.151 z"
         style="fill:#ffffff;fill-rule:evenodd;stroke:#000000;stroke-width:0.52200001px;stroke-linecap:round;stroke-linejoin:round"
         transform="translate(-1185.754,-1003.703)"
         id="path2647"
         inkscape:connector-curvature="0" />
      <path
         data-name="路径 417"
         d="m 1230.566,1070.6 -3.182,13.282 4.264,-0.554 3.083,-13.486 z"
         style="fill:#ffffff;fill-rule:evenodd;stroke:#000000;stroke-width:0.52200001px;stroke-linecap:round;stroke-linejoin:round"
         transform="translate(-1185.754,-1003.703)"
         id="path2649"
         inkscape:connector-curvature="0" />
      <path
         data-name="路径 418"
         d="m 1237.672,1069.293 -2.884,13.548 4.17,-0.606 2.879,-13.742 z"
         style="fill:#ffffff;fill-rule:evenodd;stroke:#000000;stroke-width:0.52200001px;stroke-linecap:round;stroke-linejoin:round"
         transform="translate(-1185.754,-1003.703)"
         id="path2651"
         inkscape:connector-curvature="0" />
      <path
         data-name="路径 419"
         d="m 1245.044,1067.835 -2.759,13.925 4.17,-0.507 2.759,-14.223 z"
         style="fill:#ffffff;fill-rule:evenodd;stroke:#000000;stroke-width:0.52200001px;stroke-linecap:round;stroke-linejoin:round"
         transform="translate(-1185.754,-1003.703)"
         id="path2653"
         inkscape:connector-curvature="0" />
      <path
         data-name="路径 420"
         d="m 1252.286,1066.55 -2.6,14.2 4.264,-0.6 2.5,-14.4 z"
         style="fill:#ffffff;fill-rule:evenodd;stroke:#000000;stroke-width:0.52200001px;stroke-linecap:round;stroke-linejoin:round"
         transform="translate(-1185.754,-1003.703)"
         id="path2655"
         inkscape:connector-curvature="0" />
      <path
         data-name="路径 421"
         d="m 1259.068,1065.228 -2.059,14.416 4.264,-0.554 1.959,-14.661 z"
         style="fill:#ffffff;fill-rule:evenodd;stroke:#000000;stroke-width:0.52200001px;stroke-linecap:round;stroke-linejoin:round"
         transform="translate(-1185.754,-1003.703)"
         id="path2657"
         inkscape:connector-curvature="0" />
      <path
         data-name="路径 422"
         d="m 1296.349,1074.2 13.245,10.419 21.9,-3.2 10.33,-20.424 z"
         style="fill:#ffffff;fill-rule:evenodd;stroke:#000000;stroke-width:0.52200001px;stroke-linecap:round;stroke-linejoin:round"
         transform="translate(-1185.754,-1003.703)"
         id="path2659"
         inkscape:connector-curvature="0" />
      <path
         data-name="路径 423"
         d="m 1309.594,1084.618 -8.292,14.546 55.484,-0.836 -25.286,-16.908 z"
         style="fill:#ffffff;fill-rule:evenodd;stroke:#000000;stroke-width:0.52200001px;stroke-linecap:round;stroke-linejoin:round"
         transform="translate(-1185.754,-1003.703)"
         id="path2661"
         inkscape:connector-curvature="0" />
      <path
         data-name="路径 424"
         d="m 1224.254,1084.289 -7.31,1.008 2.7,14.087 62.946,-0.664 15.774,-14.369 -2.017,-10.152 z"
         style="fill:#ffffff;fill-rule:evenodd;stroke:#000000;stroke-width:0.52200001px;stroke-linecap:round;stroke-linejoin:round"
         transform="translate(-1185.754,-1003.703)"
         id="path2663"
         inkscape:connector-curvature="0" />
      <path
         data-name="路径 425"
         d="m 1296.349,1074.2 4.953,24.965 8.292,-14.546 z"
         style="fill:#ffffff;fill-rule:evenodd;stroke:#000000;stroke-width:0.52200001px;stroke-linecap:round;stroke-linejoin:round"
         transform="translate(-1185.754,-1003.703)"
         id="path2665"
         inkscape:connector-curvature="0" />
      <path
         data-name="路径 426"
         d="m 1331.5,1081.42 25.289,16.908 -14.962,-37.328 z"
         style="fill:#ffffff;fill-rule:evenodd;stroke:#000000;stroke-width:0.52200001px;stroke-linecap:round;stroke-linejoin:round"
         transform="translate(-1185.754,-1003.703)"
         id="path2667"
         inkscape:connector-curvature="0" />
      <path
         data-name="路径 427"
         d="m 1216.944,1085.3 2.7,14.087 -30.483,-9.092 6.49,-10.931 z"
         style="fill:#ffffff;fill-rule:evenodd;stroke:#000000;stroke-width:0.52200001px;stroke-linecap:round;stroke-linejoin:round"
         transform="translate(-1185.754,-1003.703)"
         id="path2669"
         inkscape:connector-curvature="0" />
      <path
         data-name="路径 428"
         d="m 1224.254,1084.289 2.91,10.952 26.783,-15.1 z"
         style="fill:#ffffff;fill-rule:evenodd;stroke:#000000;stroke-width:0.52200001px;stroke-linecap:round;stroke-linejoin:round"
         transform="translate(-1185.754,-1003.703)"
         id="path2671"
         inkscape:connector-curvature="0" />
      <path
         data-name="路径 429"
         d="m 1227.164,1095.24 45.175,-1.087 -18.392,-14.008 z"
         style="fill:#ffffff;fill-rule:evenodd;stroke:#000000;stroke-width:0.52200001px;stroke-linecap:round;stroke-linejoin:round"
         transform="translate(-1185.754,-1003.703)"
         id="path2673"
         inkscape:connector-curvature="0" />
      <path
         data-name="路径 430"
         d="m 1272.34,1094.154 11.317,-18.178 -29.709,4.17 z"
         style="fill:#ffffff;fill-rule:evenodd;stroke:#000000;stroke-width:0.52200001px;stroke-linecap:round;stroke-linejoin:round"
         transform="translate(-1185.754,-1003.703)"
         id="path2675"
         inkscape:connector-curvature="0" />
      <path
         data-name="矩形 113"
         d="m 157.451,58.564 8.587,-3.334 4.479,11.534 -8.588,3.334 z"
         id="path2677"
         inkscape:connector-curvature="0" />
      <path
         data-name="路径 431"
         d="m 1348.144,1061.2 -0.564,7.472 2.236,-1 1.5,3.924 0.293,-7.169 -2.174,0.961 z"
         style="fill:#56ff8b;fill-rule:evenodd"
         transform="translate(-1185.754,-1003.703)"
         id="path2679"
         inkscape:connector-curvature="0" />
    </g>
  </g>
</svg>
