<?xml version="1.0" encoding="UTF-8" standalone="no"?>
<svg
   xmlns:dc="http://purl.org/dc/elements/1.1/"
   xmlns:cc="http://creativecommons.org/ns#"
   xmlns:rdf="http://www.w3.org/1999/02/22-rdf-syntax-ns#"
   xmlns:svg="http://www.w3.org/2000/svg"
   xmlns="http://www.w3.org/2000/svg"
   width="50"
   height="50"
   viewBox="0 0 7.9375 7.9375"
   version="1.1"
   id="svg8">
  <defs
     id="defs2" />
  <metadata
     id="metadata5">
    <rdf:RDF>
      <cc:Work
         rdf:about="">
        <dc:format>image/svg+xml</dc:format>
        <dc:type
           rdf:resource="http://purl.org/dc/dcmitype/StillImage" />
        <dc:title></dc:title>
      </cc:Work>
    </rdf:RDF>
  </metadata>
  <g
     transform="translate(-10.833087,-0.305355)"
     id="g5645">
    <path
       style="fill:#f0feef;fill-opacity:1;stroke:#000000;stroke-width:0.05600237;stroke-linecap:butt;stroke-linejoin:miter;stroke-miterlimit:4;stroke-dasharray:none;stroke-opacity:1"
       d="m 12.350429,1.5526273 h 5.286346 c 0.536931,0.4027182 0.849841,0.9654525 0.850164,1.7514618 h 0.230118 v 1.259263 h -0.210941 v 1.7642464 h 0.217333 V 6.9955827 H 10.921773 V 6.3084216 h 0.214139 V 4.5761363 H 10.880224 V 3.3200698 h 0.255688 C 11.058706,2.507241 11.643949,1.6997271 12.350429,1.5526273 Z"
       id="path5305" />
    <path
       style="fill:none;stroke:#000000;stroke-width:0.02494594;stroke-linecap:butt;stroke-linejoin:miter;stroke-miterlimit:4;stroke-dasharray:none;stroke-opacity:1"
       d="M 13.67707,6.986198 V 3.3521455 C 13.589536,2.5268741 13.426387,1.7496632 12.350429,1.5526273 11.561107,1.7819282 11.155437,2.3702984 11.135912,3.3200698 h -0.255688 v 1.2560665 h 0.255688 v 1.7322853 h -0.214139 v 0.6871611 z"
       id="path5307" />
    <path
       style="fill:none;stroke:#000000;stroke-width:0.02494594;stroke-linecap:butt;stroke-linejoin:miter;stroke-miterlimit:4;stroke-dasharray:none;stroke-opacity:1"
       d="M 10.873832,3.358423 13.67707,3.352145"
       id="path5309" />
    <path
       style="fill:none;stroke:#000000;stroke-width:0.02494594;stroke-linecap:butt;stroke-linejoin:miter;stroke-miterlimit:4;stroke-dasharray:none;stroke-opacity:1"
       d="M 10.874262,3.9496596 13.6775,3.9433816"
       id="path5309-2" />
    <path
       style="fill:none;stroke:#000000;stroke-width:0.02494594;stroke-linecap:butt;stroke-linejoin:miter;stroke-miterlimit:4;stroke-dasharray:none;stroke-opacity:1"
       d="m 10.881692,4.5377258 2.803238,-0.00628"
       id="path5309-9" />
    <path
       style="fill:#c7e9cc;fill-opacity:1;stroke:#000000;stroke-width:0.02494594;stroke-linecap:butt;stroke-linejoin:miter;stroke-miterlimit:4;stroke-dasharray:none;stroke-opacity:1"
       d="m 11.698425,3.3424424 c -0.0063,-1.67908 1.428929,-1.69007 1.454225,0.00319 z"
       id="path5372" />
    <path
       style="fill:#92ce86;fill-opacity:1;stroke:#000000;stroke-width:0.02494594;stroke-linecap:butt;stroke-linejoin:miter;stroke-miterlimit:4;stroke-dasharray:none;stroke-opacity:1"
       d="m 11.748239,2.8758118 1.346881,-0.00959 C 13.066757,2.707716 13.015087,2.5666881 12.938511,2.4443389 l -1.051516,0.012785 c -0.06575,0.1325602 -0.122172,0.2320724 -0.138756,0.4186879 z"
       id="path5374" />
    <rect
       style="fill:#c7e9cc;fill-opacity:1;stroke:#000000;stroke-width:0.02494594;stroke-miterlimit:4;stroke-dasharray:none;stroke-opacity:1"
       id="rect5376"
       width="1.5021653"
       height="1.8026007"
       x="11.640896"
       y="4.5377831" />
    <rect
       style="fill:#92ce86;fill-opacity:1;stroke:#000000;stroke-width:0.02494594;stroke-miterlimit:4;stroke-dasharray:none;stroke-opacity:1"
       id="rect5378"
       width="1.5018259"
       height="0.5206247"
       x="11.638037"
       y="5.4138536" />
    <rect
       style="fill:#90d286;fill-opacity:1;stroke:#000000;stroke-width:0.02494594;stroke-miterlimit:4;stroke-dasharray:none;stroke-opacity:1"
       id="rect5380"
       width="1.4989702"
       height="0.48261014"
       x="11.640896"
       y="4.5377831" />
    <path
       style="fill:none;stroke:#000000;stroke-width:0.0400017px;stroke-linecap:butt;stroke-linejoin:miter;stroke-opacity:1"
       d="m 10.915381,6.3595591 7.801676,0.019178 v 0"
       id="path5382" />
    <path
       style="fill:#89d289;fill-opacity:1;stroke:#000000;stroke-width:0.02494594;stroke-linecap:butt;stroke-linejoin:miter;stroke-miterlimit:4;stroke-dasharray:none;stroke-opacity:1"
       d="M 14.204166,6.3467749 V 4.5249989 H 14.9968 V 4.857393 l 1.099458,0.3963163 1.054713,-0.3515709 V 4.5249989 h 0.779845 v 1.8409528 z"
       id="path5384" />
    <path
       style="fill:#c7e9cc;fill-opacity:1;stroke:#000000;stroke-width:0.02494594;stroke-linecap:butt;stroke-linejoin:miter;stroke-miterlimit:4;stroke-dasharray:none;stroke-opacity:1"
       d="m 14.214946,4.9974128 h 1.17067 l 0.710642,0.2562965 0.753828,-0.2382165 h 1.075754 v 0.4248769 h -3.719934 z"
       id="path5386" />
    <path
       style="fill:#92ce86;fill-opacity:1;stroke:#000000;stroke-width:0.02494594;stroke-linecap:butt;stroke-linejoin:miter;stroke-miterlimit:4;stroke-dasharray:none;stroke-opacity:1"
       d="M 14.205906,5.4403697 V 5.928526 H 17.93036 V 5.4313298 Z"
       id="path5388" />
    <path
       style="fill:none;stroke:#000000;stroke-width:0.02494594;stroke-linecap:butt;stroke-linejoin:miter;stroke-miterlimit:4;stroke-dasharray:none;stroke-opacity:1"
       d="m 13.68493,4.5314483 0.519236,-0.00645"
       id="path5392" />
    <path
       style="fill:none;stroke:#000000;stroke-width:0.02494594;stroke-linecap:butt;stroke-linejoin:miter;stroke-miterlimit:4;stroke-dasharray:none;stroke-opacity:1"
       d="m 17.930816,4.5249989 h 0.786241"
       id="path5394" />
    <rect
       style="fill:#fcd940;fill-opacity:1;stroke:#000000;stroke-width:0.02494594;stroke-miterlimit:4;stroke-dasharray:none;stroke-opacity:1"
       id="rect5396"
       width="0.9460451"
       height="0.59447432"
       x="15.623235"
       y="3.3488343" />
    <path
       style="fill:none;stroke:#000000;stroke-width:0.02494594;stroke-linecap:butt;stroke-linejoin:miter;stroke-miterlimit:4;stroke-dasharray:none;stroke-opacity:1"
       d="m 13.6775,3.9433822 1.945734,-8e-5 v 0"
       id="path5398" />
    <path
       style="fill:none;stroke:#000000;stroke-width:0.02494594;stroke-linecap:butt;stroke-linejoin:miter;stroke-miterlimit:4;stroke-dasharray:none;stroke-opacity:1"
       d="m 16.569278,3.9333074 h 2.160563"
       id="path5400" />
    <path
       style="fill:none;stroke:#000000;stroke-width:0.02494594;stroke-linecap:butt;stroke-linejoin:miter;stroke-miterlimit:4;stroke-dasharray:none;stroke-opacity:1"
       d="m 13.67707,3.3521455 1.946164,-0.00331"
       id="path5402" />
    <path
       style="fill:none;stroke:#000000;stroke-width:0.0400017px;stroke-linecap:butt;stroke-linejoin:miter;stroke-opacity:1"
       d="m 16.569278,3.3488346 h 2.154171"
       id="path5404" />
    <path
       style="fill:#fed839;fill-opacity:1;stroke:#000000;stroke-width:0.02494594;stroke-linecap:butt;stroke-linejoin:miter;stroke-miterlimit:4;stroke-dasharray:none;stroke-opacity:1"
       d="m 14.987859,3.9442611 0.0089,0.5807378 V 4.857393 l 1.099459,0.3963163 1.054713,-0.3515709 V 4.5249989 3.9352211 Z"
       id="path5406" />
    <path
       style="fill:#e8ffe1;fill-opacity:1;stroke:#000000;stroke-width:0.02494594;stroke-linecap:butt;stroke-linejoin:miter;stroke-miterlimit:4;stroke-dasharray:none;stroke-opacity:1"
       d="M 15.218381,3.9487809 V 4.6945752 L 16.045532,5.010973 16.917885,4.7262148 V 3.9352211 Z"
       id="path5408" />
    <path
       style="fill:#000000;stroke:#000000;stroke-width:0.01547853;stroke-linecap:butt;stroke-linejoin:miter;stroke-miterlimit:4;stroke-dasharray:none;stroke-opacity:1"
       d="m 15.777181,4.4435102 0.242414,-0.369314 c 0,0 -0.0808,0.2689574 -0.06503,0.2689574 0.01577,0 0.128109,-0.00802 0.128109,-0.00802 l -0.224677,0.3652982 0.06898,-0.2729733 z"
       id="path1102-9-7-1" />
    <path
       style="fill:#000000;stroke:#000000;stroke-width:0.01547853;stroke-linecap:butt;stroke-linejoin:miter;stroke-miterlimit:4;stroke-dasharray:none;stroke-opacity:1"
       d="m 16.349785,4.4344699 0.242414,-0.3693141 c 0,0 -0.0808,0.2689574 -0.06504,0.2689574 0.01577,0 0.12811,-0.00802 0.12811,-0.00802 l -0.224682,0.365296 0.06898,-0.2729731 z"
       id="path1102-9-7-3" />
    <path
       style="fill:#c2eacf;fill-opacity:1;stroke:#000000;stroke-width:0.02494594;stroke-linecap:butt;stroke-linejoin:miter;stroke-miterlimit:4;stroke-dasharray:none;stroke-opacity:1"
       d="M 14.164128,3.3500595 C 14.144715,2.5566446 13.979395,1.9134266 13.178219,1.5494311 h 3.595028 c 0.678352,0.2087961 1.155693,0.6903957 1.161633,1.8117544 z"
       id="path5472" />
    <path
       style="fill:#96cc89;fill-opacity:1;stroke:#000000;stroke-width:0.02494594;stroke-linecap:butt;stroke-linejoin:miter;stroke-miterlimit:4;stroke-dasharray:none;stroke-opacity:1"
       d="m 14.125679,2.9057986 3.77304,0.00339 C 17.875469,2.7476887 17.846852,2.5879808 17.785718,2.4391104 h -3.765131 c 0.05116,0.1494864 0.09679,0.2951085 0.111968,0.4660614 z"
       id="path5474" />
    <path
       style="fill:#96cc89;fill-opacity:1;stroke:#000000;stroke-width:0.02494594;stroke-linecap:butt;stroke-linejoin:miter;stroke-miterlimit:4;stroke-dasharray:none;stroke-opacity:1"
       d="M 13.799712,2.0169877 C 13.609424,1.8134015 13.424984,1.6494774 13.178219,1.5494311 h 3.595028 c 0.290152,0.079047 0.556491,0.2312519 0.766656,0.4769403 z"
       id="path5476" />
    <rect
       style="fill:#c7e9cc;fill-opacity:1;stroke:#000000;stroke-width:0.02494594;stroke-miterlimit:4;stroke-dasharray:none;stroke-opacity:1"
       id="rect5478"
       width="3.7249098"
       height="0.4374257"
       x="14.205907"
       y="5.9285254" />
  </g>
</svg>
